<?xml version="1.0" encoding="UTF-8" standalone="no"?>
<svg xmlns:rdf="http://www.w3.org/1999/02/22-rdf-syntax-ns#" xmlns="http://www.w3.org/2000/svg" height="24" width="24" version="1.1" xmlns:cc="http://creativecommons.org/ns#" xmlns:dc="http://purl.org/dc/elements/1.1/">
 <path d="M0 3.5C0 3.77614 0.223858 4 0.5 4H3.5C3.77614 4 4 3.77614 4 3.5V0.5C4 0.223858 3.77614 0 3.5 0H0.5C0.223858 0 0 0.223858 0 0.5V3.5ZM6 15.5C6 15.7761 6.22386 16 6.5 16H15.5C15.7761 16 16 15.7761 16 15.5V12.5C16 12.2239 15.7761 12 15.5 12H6.5C6.22386 12 6 12.2239 6 12.5V15.5ZM0 15.5C0 15.7761 0.223858 16 0.5 16H3.5C3.77614 16 4 15.7761 4 15.5V12.5C4 12.2239 3.77614 12 3.5 12H0.5C0.223858 12 0 12.2239 0 12.5V15.5ZM0 9.5C0 9.77614 0.223858 10 0.5 10H3.5C3.77614 10 4 9.77614 4 9.5V6.5C4 6.22386 3.77614 6 3.5 6H0.5C0.223858 6 0 6.22386 0 6.5V9.5ZM6 9.5C6 9.77614 6.22386 10 6.5 10H15.5C15.7761 10 16 9.77614 16 9.5V6.5C16 6.22386 15.7761 6 15.5 6H6.5C6.22386 6 6 6.22386 6 6.5V9.5ZM6 3.5C6 3.77614 6.22386 4 6.5 4H15.5C15.7761 4 16 3.77614 16 3.5V0.5C16 0.223858 15.7761 0 15.5 0H6.5C6.22386 0 6 0.223858 6 0.5V3.5Z" fill="currentColor"></path>
</svg>
